<mxfile host="app.diagrams.net" modified="2023-05-30T02:51:29.185Z" agent="Mozilla/5.0 (Windows NT 10.0; Win64; x64) AppleWebKit/537.36 (KHTML, like Gecko) Chrome/113.0.0.0 Safari/537.36" version="21.3.5" etag="nY0HA0bmSsbkhy28Pu6h" type="github">
  <diagram name="第 1 页" id="T-5tJUv_3iaUn14bstI3">
    <mxGraphModel>
      <root>
        <mxCell id="0" />
        <mxCell id="1" parent="0" />
      </root>
    </mxGraphModel>
  </diagram>
</mxfile>
